<svg width="1814.1732" height="1814.1732" xmlns="http://www.w3.org/2000/svg">

 <metadata id="metadata4707">image/svg+xml</metadata>
 <g>
  <title>background</title>
  <rect fill="#4b175a" id="canvas_background" height="1816.1732" width="1816.1732" y="-1" x="-1"/>
 </g>
 <g>
  <title>Layer 1</title>
  <g id="layer1">
   <g id="g4152">
    <g id="g4147">
     <g transform="matrix(10, 0, 0, 10, -1395.14, -6080.07)" id="g4143">
      <path fill="#ffffff" d="m183.404907,687.299866c-2.753098,5.0849 -8.822906,7.140625 -10.990005,12.094116c-2.286102,5.225891 2.084305,8.907898 1.443695,13.905884c-0.737289,5.754028 -5.587585,10.302002 -6.535492,16c-0.7211,4.335022 2.349396,8.76001 3.081802,13c1.706497,-2.79303 2.337997,-5.802002 3,-9c0.265305,2.388 0.142502,4.593994 0,7c0.684799,-1.247986 0.748795,-1.547974 1,-3c1.712692,1.646973 2.69429,1.630981 3,4c1.730896,-2.888977 1.929199,-5.661011 2,-9l2,0l0,8c0.7789,-1.768982 0.912399,-3.036011 1,-5l1,2c1.513596,-1.453979 1.913193,-1.810974 4,-2c0,-6.880005 -1.569702,-14.218994 -0.891205,-21c0.351608,-3.513977 2.415298,-6.5 2.743103,-10c0.377106,-4.028015 -2.679596,-8.227722 -0.285507,-11.909729c5.829803,-8.966003 21.639999,-13.345886 31.433609,-15.590271c2.522995,-0.578186 13.320999,-3.244019 12.36879,2.425171c-0.568298,3.382446 -5.757599,3.867737 -8.36879,4.320923c-8.623398,1.496704 -17.326904,3.391418 -25,7.753906c5.552292,3.9776 13.5168,5.214722 20,7.2052c3.989395,1.224915 7.716293,3.003113 12,2.595703c11.783005,-1.120605 24.756012,-7.284607 36,-10.964478c10.29599,-3.369934 20.846985,-6.051025 31,-9.836426c-2.494995,-8.294128 -18.578003,-9.963623 -26,-12.344116c-9.321014,-2.989563 -18.695999,-5.774414 -28,-8.819458c-4.567001,-1.494751 -10.143005,-4.182312 -15,-3.996155c-4.691696,0.17981 -9.595901,2.520508 -14,3.993042c-7.294601,2.439087 -14.651703,4.704773 -22,6.961487c-8.001602,2.457275 -16.029999,4.830505 -24,7.399597c-2.228302,0.718323 -7.364197,1.831299 -7.364197,4.921326c0,2.33075 2.578995,3.329285 4.383499,3.980774c5.476501,1.97699 11.357895,3.400391 16.980698,4.903503z" id="path10"/>
      <path fill="#ffffff" d="m191.404907,719.299866c8.463791,4.817017 17.975601,7.979004 27,11.599976c3.680496,1.477051 7.939102,4.16803 12,4.059998c4.847,-0.126953 10.528992,-3.107971 15,-4.862976c8.328995,-3.268982 16.888,-6.002991 25,-9.796997c-1.51001,-4.705017 -3.373016,-9.289978 -4.881012,-14c-0.75,-2.34198 -1.434998,-5.497803 -3.617981,-6.968384c-2.679016,-1.804016 -6.703003,-0.371521 -9.501007,0.393555c-6.882004,1.881653 -13.942001,5.536804 -21,6.488831c-6.743698,0.90802 -15.695496,-4.233521 -22,-6.409424c-2.349396,-0.810791 -6.069107,-2.734192 -8.500809,-1.372681c-3.183899,1.782715 -4.924088,8.674072 -6.273895,11.868103c-1.249695,2.95697 -2.379303,5.906982 -3.225296,9z" id="path280"/>
     </g>
    </g>
   </g>
  </g>
 </g>
</svg>