<?xml version="1.0" encoding="UTF-8" standalone="no"?>
<!-- Created with Inkscape (http://www.inkscape.org/) -->

<svg xmlns:dc="http://purl.org/dc/elements/1.1/" xmlns:cc="http://creativecommons.org/ns#" xmlns:rdf="http://www.w3.org/1999/02/22-rdf-syntax-ns#"
    xmlns="http://www.w3.org/2000/svg" xmlns:sodipodi="http://sodipodi.sourceforge.net/DTD/sodipodi-0.dtd"
    xmlns:inkscape="http://www.inkscape.org/namespaces/inkscape" width="512mm" height="512mm"
    viewBox="0 0 1814.1732 1814.1732" id="svg4702" version="1.1" inkscape:version="0.91 r13725"
    sodipodi:docname="efzg logo.svg">
  <defs
     id="defs4704" />
  <sodipodi:namedview
     id="base"
     pagecolor="#832e6b"
     bordercolor="#666666"
     borderopacity="1.0"
     inkscape:pageopacity="1"
     inkscape:pageshadow="2"
     inkscape:zoom="0.24748737"
     inkscape:cx="772.93933"
     inkscape:cy="947.2429"
     inkscape:document-units="px"
     inkscape:current-layer="layer1"
     showgrid="false"
     inkscape:window-width="1366"
     inkscape:window-height="705"
     inkscape:window-x="-8"
     inkscape:window-y="-8"
     inkscape:window-maximized="1" />
  <metadata
     id="metadata4707">
    <rdf:RDF>
      <cc:Work
         rdf:about="">
        <dc:format>image/svg+xml</dc:format>
        <dc:type
           rdf:resource="http://purl.org/dc/dcmitype/StillImage" />
        <dc:title />
      </cc:Work>
    </rdf:RDF>
  </metadata>
  <g
     inkscape:label="Layer 1"
     inkscape:groupmode="layer"
     id="layer1"
     transform="translate(0,761.81102)">
    <g
       id="g4152"
       transform="translate(45.085214,73.150052)">
      <g
         id="g4147">
        <g
           id="g4143"
           transform="matrix(10,0,0,10,-1395.1415,-6080.0679)">
          <path
             id="path10"
             d="m 178.89639,603.80379 c -2.7531,5.0849 -8.8229,7.1406 -10.99,12.0941 -2.2861,5.2259 2.0843,8.9079 1.4437,13.9059 -0.7373,5.754 -5.5876,10.302 -6.5355,16 -0.7211,4.335 2.3494,8.76 3.0818,13 1.7065,-2.793 2.338,-5.802 3,-9 0.2653,2.388 0.1425,4.594 0,7 0.6848,-1.248 0.7488,-1.548 1,-3 1.7127,1.647 2.6943,1.631 3,4 1.7309,-2.889 1.9292,-5.661 2,-9 l 2,0 0,8 c 0.7789,-1.769 0.9124,-3.036 1,-5 l 1,2 c 1.5136,-1.454 1.9132,-1.811 4,-2 0,-6.88 -1.5697,-14.219 -0.8912,-21 0.3516,-3.514 2.4153,-6.5 2.7431,-10 0.3771,-4.028 -2.6796,-8.2277 -0.2855,-11.9097 5.8298,-8.966 21.64,-13.3459 31.4336,-15.5903 2.523,-0.5782 13.321,-3.244 12.3688,2.4252 -0.5683,3.3824 -5.7576,3.8677 -8.3688,4.3209 -8.6234,1.4967 -17.3269,3.3914 -25,7.7539 5.5523,3.9776 13.5168,5.2147 20,7.2052 3.9894,1.2249 7.7163,3.0031 12,2.5957 11.783,-1.1206 24.756,-7.2846 36,-10.9645 10.296,-3.3699 20.847,-6.051 31,-9.8364 -2.495,-8.2941 -18.578,-9.9636 -26,-12.3441 -9.321,-2.9896 -18.696,-5.7744 -28,-8.8195 -4.567,-1.4947 -10.143,-4.1823 -15,-3.9961 -4.6917,0.1798 -9.5959,2.5205 -14,3.993 -7.2946,2.4391 -14.6517,4.7048 -22,6.9615 -8.0016,2.4573 -16.03,4.8305 -24,7.3996 -2.2283,0.7183 -7.3642,1.8313 -7.3642,4.9213 0,2.3308 2.579,3.3293 4.3835,3.9808 5.4765,1.977 11.3579,3.4004 16.9807,4.9035 z"
             style="fill:#ffffff;stroke:none"
             inkscape:connector-curvature="0" />
          <path
             id="path280"
             d="m 186.89639,635.80379 c 8.4638,4.817 17.9756,7.979 27,11.6 3.6805,1.477 7.9391,4.168 12,4.06 4.847,-0.127 10.529,-3.108 15,-4.863 8.329,-3.269 16.888,-6.003 25,-9.797 -1.51,-4.705 -3.373,-9.29 -4.881,-14 -0.75,-2.342 -1.435,-5.4978 -3.618,-6.9684 -2.679,-1.804 -6.703,-0.3715 -9.501,0.3936 -6.882,1.8816 -13.942,5.5368 -21,6.4888 -6.7437,0.908 -15.6955,-4.2335 -22,-6.4094 -2.3494,-0.8108 -6.0691,-2.7342 -8.5008,-1.3727 -3.1839,1.7827 -4.9241,8.6741 -6.2739,11.8681 -1.2497,2.957 -2.3793,5.907 -3.2253,9 z"
             style="fill:#ffffff;stroke:none"
             inkscape:connector-curvature="0" />
        </g>
      </g>
    </g>
  </g>
</svg>
